<svg width="34" height="34" viewBox="0 0 34 34" fill="none" xmlns="http://www.w3.org/2000/svg">
<g clip-path="url(#clip0_502_2)">
<path d="M20.1342 21.6707C20.353 23.0206 20.1289 24.405 19.4953 25.6168C18.8618 26.8287 17.8529 27.8028 16.6196 28.3934C15.3862 28.9841 13.9948 29.1595 12.6535 28.8935C11.3122 28.6274 10.093 27.9342 9.17853 26.9175C8.26402 25.9009 7.70328 24.6154 7.58022 23.2535C7.45716 21.8916 7.77839 20.5265 8.49585 19.3624C9.21331 18.1982 10.2884 17.2977 11.5603 16.7955C12.8322 16.2934 14.2326 16.2165 15.5518 16.5765L14.8012 19.3269C14.0761 19.129 13.3064 19.1712 12.6073 19.4473C11.9082 19.7233 11.3172 20.2183 10.9229 20.8581C10.5285 21.498 10.3519 22.2484 10.4196 22.997C10.4872 23.7456 10.7954 24.4521 11.2981 25.0109C11.8008 25.5697 12.4709 25.9508 13.2082 26.097C13.9454 26.2432 14.7102 26.1468 15.3881 25.8222C16.066 25.4975 16.6206 24.9621 16.9688 24.296C17.3171 23.6299 17.4403 22.8689 17.32 22.127L20.1342 21.6707Z" fill="#242424"/>
<path d="M24.1407 26.8595C23.2914 28.7452 21.885 30.3231 20.0918 31.402C18.2985 32.4809 16.1955 33.0147 14.0372 32.9386C11.879 32.8624 9.75825 32.1797 7.93177 30.9731C6.10528 29.7665 4.65145 28.0877 3.74636 26.1401C2.84126 24.1925 2.52372 22.0597 2.8322 19.9999C3.14068 17.9401 4.06195 16.0417 5.48442 14.5347C6.90689 13.0276 8.76955 11.9765 10.8468 11.5088C12.924 11.041 15.1268 11.1766 17.1882 11.8991L16.1448 15.1129C14.7334 14.6182 13.2253 14.5253 11.8031 14.8456C10.3808 15.1659 9.10555 15.8855 8.13163 16.9173C7.15771 17.9492 6.52695 19.2489 6.31574 20.6592C6.10454 22.0695 6.32194 23.5298 6.94163 24.8632C7.56132 26.1967 8.55671 27.3461 9.80724 28.1722C11.0578 28.9983 12.5098 29.4658 13.9875 29.5179C15.4651 29.57 16.905 29.2046 18.1328 28.4658C19.3605 27.7271 20.3235 26.6468 20.905 25.3557L24.1407 26.8595Z" fill="#242424"/>
<path d="M31.0019 2.88273L25.0635 25.0449C24.1442 28.4759 22.4624 30.8578 20.0182 32.1906C17.6048 33.5317 14.76 33.7633 11.4835 32.8853C8.05257 31.966 5.5625 30.2552 4.01333 27.753C2.46417 25.2508 2.16995 22.2069 3.13069 18.6214L11.0126 20.7334C10.6482 22.0934 10.649 23.2034 11.0148 24.0634C11.389 24.8925 12.1016 25.4479 13.1525 25.7295C14.1107 25.9862 14.9353 25.8759 15.6264 25.3985C16.3175 24.9211 16.8205 24.0951 17.1352 22.9206L23.0735 0.758348L31.0019 2.88273Z" fill="url(#paint0_linear_502_2)"/>
</g>
<defs>
<linearGradient id="paint0_linear_502_2" x1="10.5" y1="20.5" x2="23" y2="0.999999" gradientUnits="userSpaceOnUse">
<stop stop-color="#242424"/>
<stop offset="1" stop-color="#0AF759"/>
</linearGradient>
<clipPath id="clip0_502_2">
<rect width="34" height="34" fill="white"/>
</clipPath>
</defs>
</svg>
