<svg width="64" height="64" viewBox="0 0 64 64" fill="none" xmlns="http://www.w3.org/2000/svg">
<g clip-path="url(#clip0_701_6)">
<path d="M41.6961 43.3476C42.0458 45.92 41.5532 48.5366 40.2919 50.8057C39.0306 53.0748 37.0684 54.8745 34.6991 55.9355C32.3297 56.9966 29.6804 57.2619 27.1477 56.6918C24.615 56.1216 22.3349 54.7468 20.6487 52.7728C18.9625 50.7989 17.9608 48.332 17.7934 45.7413C17.6261 43.1506 18.3021 40.5753 19.7203 38.4009C21.1386 36.2264 23.2228 34.5696 25.6611 33.6783C28.0994 32.7871 30.7608 32.7093 33.247 33.4567L31.1865 40.311C30.1809 40.0087 29.1044 40.0402 28.1182 40.4007C27.1319 40.7612 26.2889 41.4313 25.7152 42.3108C25.1416 43.1904 24.8682 44.232 24.9358 45.2799C25.0035 46.3278 25.4087 47.3256 26.0908 48.124C26.7728 48.9225 27.695 49.4786 28.7195 49.7092C29.7439 49.9398 30.8155 49.8325 31.7739 49.4033C32.7322 48.9741 33.5259 48.2462 34.036 47.3284C34.5462 46.4105 34.7455 45.3522 34.604 44.3117L41.6961 43.3476Z" fill="#242424"/>
<path d="M48.9886 45.4217C48.0987 49.6019 46.0058 53.4383 42.9808 56.4346C39.9558 59.4308 36.1378 61.4491 32.0207 62.2283C27.9037 63.0075 23.6769 62.5118 19.8873 60.8053C16.0977 59.0988 12.9196 56.26 10.7642 52.6562C8.60866 49.0524 7.57496 44.8493 7.79678 40.5908C8.01859 36.3322 9.48571 32.2141 12.0084 28.7691C14.531 25.3241 17.9931 22.7108 21.9468 21.2672C25.9004 19.8236 30.1638 19.6161 34.1853 20.6716L32.2867 27.7054C29.6366 27.0099 26.8271 27.1466 24.2217 28.0979C21.6163 29.0492 19.3348 30.7713 17.6724 33.0415C16.01 35.3117 15.0432 38.0255 14.8971 40.8318C14.7509 43.6382 15.4321 46.4079 16.8525 48.7828C18.2729 51.1577 20.3673 53.0284 22.8646 54.1529C25.3618 55.2775 28.1472 55.6041 30.8603 55.0907C33.5734 54.5772 36.0894 53.2472 38.0828 51.2727C40.0762 49.2982 41.4554 46.7701 42.0418 44.0154L48.9886 45.4217Z" fill="#242424"/>
<path d="M59.0539 9.20404L48.5381 48.4496C46.9102 54.5253 43.932 58.7432 39.6037 61.1034C35.3301 63.4782 30.2923 63.8883 24.4903 62.3336C18.4146 60.7057 14.0051 57.6762 11.2618 53.2452C8.51846 48.8142 7.99746 43.424 9.69876 37.0746L23.6564 40.8146C23.0111 43.223 23.0124 45.1886 23.6603 46.7115C24.3229 48.1797 25.5847 49.1631 27.4457 49.6618C29.1425 50.1164 30.6028 49.9211 31.8267 49.0757C33.0505 48.2303 33.9411 46.7676 34.4984 44.6877L45.0142 5.44211L59.0539 9.20404Z" fill="url(#paint0_linear_701_6)"/>
</g>
<defs>
<linearGradient id="paint0_linear_701_6" x1="25.3813" y1="41.183" x2="46.3404" y2="5.17582" gradientUnits="userSpaceOnUse">
<stop stop-color="#242424"/>
<stop offset="1" stop-color="#0AF759"/>
</linearGradient>
<clipPath id="clip0_701_6">
<rect width="64" height="64" fill="white"/>
</clipPath>
</defs>
</svg>
